<?xml version="1.0" standalone="no"?>
<!-- Generator: Adobe Fireworks 10, Export SVG Extension by Aaron Beall (http://fireworks.abeall.com) . Version: 0.6.1  -->
<!DOCTYPE svg PUBLIC "-//W3C//DTD SVG 1.1//EN" "http://www.w3.org/Graphics/SVG/1.1/DTD/svg11.dtd">
<svg id="Untitled-Page%201%20Copy" viewBox="0 0 1024 768" style="background-color:#ffffff" version="1.1"
	xmlns="http://www.w3.org/2000/svg" xmlns:xlink="http://www.w3.org/1999/xlink" xml:space="preserve"
	x="0px" y="0px" width="1024px" height="768px"
>
	<g id="Layer%201">
		<path d="M 512 -10 L 511 -10 L -3 -10 L -3 777 L 511 777 L 1026 777 L 1026 -10 L 512 -10 ZM 159 331 L 130 314 L 94 285 L 67 256 L 46 224 L 33 199 L 25 173 L 21 140 L 22 113 L 27 86 L 36 61 L 51 43 L 68 31 L 95 21 L 134 14 L 182 12 L 410 12 L 437 18 L 461 31 L 480 47 L 496 69 L 506 94 L 511 114.835 L 511 119 L 511.5 116.915 L 512 119 L 512 114.83 L 517 94 L 527 69 L 543 47 L 562 31 L 586 18 L 613 12 L 841 12 L 889 14 L 928 21 L 955 31 L 972 43 L 987 61 L 996 86 L 1001 113 L 1002 140 L 998 173 L 990 199 L 977 224 L 956 256 L 929 285 L 893 314 L 864 331 L 901 354 L 941 389 L 970 425 L 989 460 L 998 490 L 1002 528 L 999 563 L 994 593 L 983 628 L 964 665 L 938 697 L 906 720 L 868 738 L 834 747 L 795 752 L 747 751 L 698 743 L 655 728 L 614 707 L 579 680 L 548 649 L 525 612 L 511 567 L 498 612 L 475 649 L 444 680 L 409 707 L 368 728 L 325 743 L 276 751 L 228 752 L 189 747 L 155 738 L 117 720 L 85 697 L 59 665 L 40 628 L 29 593 L 24 563 L 21 528 L 25 490 L 34 460 L 53 425 L 82 389 L 122 354 L 159 331 Z" stroke="#ffffff00" stroke-width="1" fill="#d90000"/>
		<path d="M 354 372 L 370 377 L 384 376 L 398 374 L 417 367 L 433 357 L 449 347 L 465 341 L 488 335 L 511 333 L 534 335 L 557 341 L 573 347 L 589 357 L 605 367 L 624 374 L 638 376 L 652 377 L 667 372 L 648 374 L 626 369 L 606 359 L 582 342 L 560 319 L 542 291 L 528 265 L 514 232 L 511 220 L 508 232 L 494 265 L 480 291 L 462 319 L 440 342 L 416 359 L 396 369 L 374 374 L 354 372 Z" stroke="#ffffff00" stroke-width="1" fill="#ff0000"/>
		<path d="M 203 402 L 215 433 L 230 454 L 253 475 L 276 488 L 299 497 L 324 501 L 347 501 L 372 499 L 395 494 L 434 476 L 378 513 L 346 529 L 312 541 L 282 545 L 262 544 L 242 538 L 231 530 L 219 515 L 210 497 L 205 477 L 203 453 L 203 402 Z" stroke="#ffffff00" stroke-width="1" fill="#ff0000"/>
		<path d="M 820 402 L 808 433 L 793 454 L 770 475 L 747 488 L 724 497 L 699 501 L 676 501 L 651 499 L 628 494 L 589 476 L 645 513 L 677 529 L 711 541 L 741 545 L 761 544 L 781 538 L 792 530 L 804 515 L 813 497 L 818 477 L 820 453 L 820 402 Z" stroke="#ffffff00" stroke-width="1" fill="#ff0000"/>
		<path d="M 121 206 L 138 217 L 155 222 L 174 224 L 391 224 L 412 223 L 429 218 L 447 205 L 421 232 L 400 247 L 382 254 L 363 257 L 205 257 L 189 255 L 174 250 L 158 241 L 138 224 L 121 206 Z" stroke="#ffffff00" stroke-width="1" fill="#ff0000"/>
		<path d="M 902 206 L 885 217 L 868 222 L 849 224 L 632 224 L 611 223 L 594 218 L 576 205 L 602 232 L 623 247 L 641 254 L 660 257 L 818 257 L 834 255 L 849 250 L 865 241 L 885 224 L 902 206 Z" stroke="#ffffff00" stroke-width="1" fill="#ff0000"/>
	</g>
</svg>