<?xml version="1.0" standalone="no"?>
<!-- Generator: Adobe Fireworks 10, Export SVG Extension by Aaron Beall (http://fireworks.abeall.com) . Version: 0.6.1  -->
<!DOCTYPE svg PUBLIC "-//W3C//DTD SVG 1.1//EN" "http://www.w3.org/Graphics/SVG/1.1/DTD/svg11.dtd">
<svg id="Untitled-Page%201" viewBox="0 0 1024 768" style="background-color:#ffffff" version="1.1"
	xmlns="http://www.w3.org/2000/svg" xmlns:xlink="http://www.w3.org/1999/xlink" xml:space="preserve"
	x="0px" y="0px" width="1024px" height="768px"
>
	<g id="Layer%201">
		<path d="M 92 390 L 116 477 L 167 554 L 259 613 L 341 633 L 412 634 L 495 609 L 595 546 L 653 504 L 669 587 L 668 774 L -23 772 L -57 352 L 92 390 Z" fill="#9b9b8c"/>
		<path d="M 763 401 L 827 384 L 888 389 L 946 413 L 983 461 L 995 520 L 987 584 L 956 644 L 901 687 L 831 695 L 762 675 L 726 630 L 707 563 L 698 489 L 679 525 L 689 781 L 1039 774 L 1034 348 L 834 354 L 763 401 Z" stroke="#ffffff00" stroke-width="1" fill="#9b9b8c"/>
		<path d="M 751 353 L 749.8362 310.1402 L 741 270 L 715 240 L 686 216 L 638 196 L 591 186 L 518 193 L 452 227 L 495 133 L 652 124 L 780 174 L 795 310 L 751 353 Z" stroke="#ffffff00" stroke-width="1" fill="#9b9b8c"/>
		<path d="M 479 280 L 387 311 L 340 317 L 281 311 L 230 282 L 217 240 L 224 186 L 257 142 L 326 87 L 373 62 L 327 53 L 170 52 L 130 98 L 139 250 L 219 342 L 397 364 L 479 280 Z" stroke="#ffffff00" stroke-width="1" fill="#9b9b8c"/>
	</g>
</svg>